<svg width="25" height="20" viewBox="0 0 25 20" fill="none" xmlns="http://www.w3.org/2000/svg">
<g clip-path="url(#clip0_333_123)">
<path d="M21.1774 1.62076C19.5591 0.863602 17.8287 0.31333 16.0197 0C15.7975 0.401678 15.538 0.941943 15.359 1.37172C13.4359 1.08252 11.5306 1.08252 9.64287 1.37172C9.46395 0.941943 9.19849 0.401678 8.97433 0C7.16334 0.31333 5.431 0.865624 3.8127 1.62477C0.548586 6.55728 -0.336262 11.3673 0.106163 16.109C2.2711 17.7257 4.36918 18.7078 6.43185 19.3504C6.94113 18.6495 7.39535 17.9044 7.78664 17.1192C7.04141 16.836 6.32763 16.4865 5.6532 16.0809C5.83213 15.9483 6.00714 15.8097 6.17623 15.6671C10.2898 17.5911 14.7593 17.5911 18.8237 15.6671C18.9948 15.8097 19.1697 15.9483 19.3467 16.0809C18.6703 16.4885 17.9546 16.838 17.2093 17.1212C17.6006 17.9044 18.0529 18.6515 18.5641 19.3524C20.6288 18.7098 22.7288 17.7277 24.8937 16.109C25.4129 10.6121 24.0069 5.84631 21.1774 1.62076ZM8.34706 13.1929C7.11221 13.1929 6.09953 12.0401 6.09953 10.6362C6.09953 9.23239 7.09059 8.07759 8.34706 8.07759C9.60357 8.07759 10.6162 9.23037 10.5946 10.6362C10.5965 12.0401 9.60357 13.1929 8.34706 13.1929ZM16.6529 13.1929C15.418 13.1929 14.4053 12.0401 14.4053 10.6362C14.4053 9.23239 15.3963 8.07759 16.6529 8.07759C17.9093 8.07759 18.922 9.23037 18.9004 10.6362C18.9004 12.0401 17.9093 13.1929 16.6529 13.1929Z" fill="white"/>
</g>
<defs>
<clipPath id="clip0_333_123">
<rect width="25" height="19.4336" fill="white"/>
</clipPath>
</defs>
</svg>
