<svg width="16" height="13" viewBox="0 0 16 13" fill="none" xmlns="http://www.w3.org/2000/svg">
<path d="M15.4115 5.62643C15.35 5.50363 15.2577 5.39144 15.14 5.29629L8.67543 0.294214C8.55488 0.200937 8.41177 0.126945 8.25426 0.076464C8.09676 0.0259827 7.92794 0 7.75746 0C7.41316 0 7.08295 0.105832 6.83949 0.294214C6.71895 0.387491 6.62332 0.498228 6.55808 0.6201C6.49284 0.741973 6.45926 0.872595 6.45926 1.00451C6.45926 1.27092 6.59603 1.52642 6.83949 1.7148L11.1061 5.00617H1.29291C0.950009 5.00617 0.621153 5.11157 0.378685 5.29919C0.136217 5.4868 0 5.74126 0 6.00659C0 6.27191 0.136217 6.52637 0.378685 6.71399C0.621153 6.9016 0.950009 7.007 1.29291 7.007H11.1061L6.83949 10.2984C6.71831 10.3914 6.62213 10.502 6.55649 10.6239C6.49085 10.7458 6.45705 10.8766 6.45705 11.0087C6.45705 11.1407 6.49085 11.2715 6.55649 11.3934C6.62213 11.5153 6.71831 11.626 6.83949 11.719C6.95969 11.8127 7.10268 11.8872 7.26024 11.9379C7.41779 11.9887 7.58678 12.0149 7.75746 12.0149C7.92814 12.0149 8.09713 11.9887 8.25468 11.9379C8.41224 11.8872 8.55523 11.8127 8.67543 11.719L15.14 6.71688C15.2577 6.62174 15.35 6.50955 15.4115 6.38675C15.5408 6.14318 15.5408 5.86999 15.4115 5.62643Z" fill="#A49EFD"/>
</svg>
