<svg width="12" height="8" viewBox="0 0 12 8" fill="none" xmlns="http://www.w3.org/2000/svg">
<path d="M11.6633 0.331023C11.45 0.119005 11.1615 0 10.8607 0C10.56 0 10.2715 0.119005 10.0582 0.331023L5.97154 4.36077L1.94179 0.331023C1.72851 0.119005 1.43999 0 1.13926 0C0.838521 0 0.550005 0.119005 0.336721 0.331023C0.230026 0.436847 0.145339 0.562749 0.0875465 0.701468C0.0297541 0.840186 0 0.988974 0 1.13925C0 1.28952 0.0297541 1.43831 0.0875465 1.57703C0.145339 1.71575 0.230026 1.84165 0.336721 1.94748L5.16331 6.77407C5.26914 6.88076 5.39504 6.96545 5.53376 7.02324C5.67248 7.08104 5.82127 7.11079 5.97154 7.11079C6.12182 7.11079 6.2706 7.08104 6.40932 7.02324C6.54804 6.96545 6.67394 6.88076 6.77977 6.77407L11.6633 1.94748C11.77 1.84165 11.8547 1.71575 11.9125 1.57703C11.9702 1.43831 12 1.28952 12 1.13925C12 0.988974 11.9702 0.840186 11.9125 0.701468C11.8547 0.562749 11.77 0.436847 11.6633 0.331023Z" fill="white"/>
</svg>
