<svg width="15" height="17" viewBox="0 0 15 17" fill="none" xmlns="http://www.w3.org/2000/svg">
<path d="M12.75 1.62706H11.25V0.813529C11.25 0.597768 11.171 0.390844 11.0303 0.238277C10.8897 0.0857108 10.6989 0 10.5 0C10.3011 0 10.1103 0.0857108 9.96967 0.238277C9.82902 0.390844 9.75 0.597768 9.75 0.813529V1.62706H5.25V0.813529C5.25 0.597768 5.17098 0.390844 5.03033 0.238277C4.88968 0.0857108 4.69891 0 4.5 0C4.30109 0 4.11032 0.0857108 3.96967 0.238277C3.82902 0.390844 3.75 0.597768 3.75 0.813529V1.62706H2.25C1.65326 1.62706 1.08097 1.88419 0.65901 2.34189C0.237053 2.79959 0 3.42036 0 4.06765V13.83C0 14.4773 0.237053 15.0981 0.65901 15.5558C1.08097 16.0135 1.65326 16.2706 2.25 16.2706H12.75C13.3467 16.2706 13.919 16.0135 14.341 15.5558C14.7629 15.0981 15 14.4773 15 13.83V4.06765C15 3.42036 14.7629 2.79959 14.341 2.34189C13.919 1.88419 13.3467 1.62706 12.75 1.62706ZM13.5 13.83C13.5 14.0458 13.421 14.2527 13.2803 14.4053C13.1397 14.5578 12.9489 14.6435 12.75 14.6435H2.25C2.05109 14.6435 1.86032 14.5578 1.71967 14.4053C1.57902 14.2527 1.5 14.0458 1.5 13.83V8.13529H13.5V13.83ZM13.5 6.50823H1.5V4.06765C1.5 3.85189 1.57902 3.64496 1.71967 3.49239C1.86032 3.33983 2.05109 3.25412 2.25 3.25412H3.75V4.06765C3.75 4.28341 3.82902 4.49033 3.96967 4.6429C4.11032 4.79546 4.30109 4.88118 4.5 4.88118C4.69891 4.88118 4.88968 4.79546 5.03033 4.6429C5.17098 4.49033 5.25 4.28341 5.25 4.06765V3.25412H9.75V4.06765C9.75 4.28341 9.82902 4.49033 9.96967 4.6429C10.1103 4.79546 10.3011 4.88118 10.5 4.88118C10.6989 4.88118 10.8897 4.79546 11.0303 4.6429C11.171 4.49033 11.25 4.28341 11.25 4.06765V3.25412H12.75C12.9489 3.25412 13.1397 3.33983 13.2803 3.49239C13.421 3.64496 13.5 3.85189 13.5 4.06765V6.50823Z" fill="white"/>
</svg>
