<svg width="15" height="17" viewBox="0 0 15 17" fill="none" xmlns="http://www.w3.org/2000/svg">
<path d="M9.82361 8.6509L8.25 7.66576V4.06765C8.25 3.85188 8.17098 3.64496 8.03033 3.49239C7.88968 3.33983 7.69891 3.25412 7.5 3.25412C7.30109 3.25412 7.11032 3.33983 6.96967 3.49239C6.82902 3.64496 6.75 3.85188 6.75 4.06765V8.13529C6.74997 8.27812 6.78461 8.41845 6.85043 8.54215C6.91626 8.66585 7.01096 8.76857 7.125 8.83998L9.07361 10.0603C9.15892 10.1138 9.25312 10.1485 9.35081 10.1625C9.4485 10.1764 9.54778 10.1694 9.64297 10.1418C9.73815 10.1141 9.82738 10.0664 9.90556 10.0013C9.98374 9.93627 10.0493 9.85513 10.0986 9.76256C10.1479 9.66999 10.1798 9.5678 10.1927 9.46182C10.2055 9.35585 10.199 9.24817 10.1734 9.14493C10.1479 9.0417 10.1039 8.94493 10.0438 8.86016C9.98381 8.7754 9.90897 8.70429 9.82361 8.6509ZM7.5 0C6.01664 0 4.56659 0.477127 3.33323 1.37104C2.09986 2.26496 1.13856 3.53552 0.570907 5.02205C0.00324963 6.50858 -0.145275 8.14432 0.144114 9.72241C0.433503 11.3005 1.14781 12.7501 2.1967 13.8878C3.2456 15.0256 4.58197 15.8004 6.03683 16.1143C7.49168 16.4282 8.99968 16.2671 10.3701 15.6513C11.7406 15.0356 12.9119 13.9929 13.736 12.655C14.5601 11.3172 15 9.7443 15 8.13529C14.9978 5.97842 14.2069 3.91057 12.8009 2.38542C11.3948 0.860278 9.48845 0.00239876 7.5 0ZM7.5 14.6435C6.31331 14.6435 5.15328 14.2618 4.16658 13.5467C3.17989 12.8316 2.41085 11.8151 1.95673 10.6259C1.5026 9.43666 1.38378 8.12807 1.61529 6.8656C1.8468 5.60313 2.41825 4.44347 3.25736 3.53328C4.09648 2.62308 5.16558 2.00323 6.32946 1.75211C7.49335 1.50099 8.69975 1.62988 9.7961 2.12247C10.8925 2.61506 11.8295 3.44924 12.4888 4.51951C13.1481 5.58979 13.5 6.84809 13.5 8.13529C13.4982 9.86078 12.8655 11.515 11.7406 12.7351C10.6158 13.9552 9.09074 14.6416 7.5 14.6435Z" fill="white"/>
</svg>
