<svg width="160" height="25" viewBox="0 0 160 25" fill="none" xmlns="http://www.w3.org/2000/svg">
<g clip-path="url(#clip0_328_30)">
<path d="M6.68755 0.231245C5.8813 0.631245 4.9313 1.72499 4.93755 2.24999C4.93755 2.50624 5.37505 3.175 5.75005 3.49999C6.2063 3.89375 6.66255 4.09999 7.33755 4.21874C7.7063 4.28124 7.9188 4.34999 7.97505 4.425C8.1313 4.62499 8.06254 4.8375 7.81255 4.96874C7.5563 5.09999 6.68755 4.94374 6.1063 4.66249C5.42505 4.33125 4.7438 3.7 4.46255 3.13124C4.3313 2.86875 4.27505 2.84999 4.01255 2.97499C3.03755 3.43125 2.22505 4.44374 1.9938 5.49999C1.88755 6 1.88755 6.81874 1.9938 7.15625C2.23755 7.91249 2.25005 7.9375 2.47505 7.9375C2.9688 7.9375 4.41255 8.4 4.95005 8.73125C5.0813 8.8125 5.20005 8.875 5.2188 8.875C5.2938 8.875 6.2063 9.58125 6.50005 9.86875C6.7438 10.1 6.81255 10.2062 6.81255 10.3625C6.81255 10.5187 6.77505 10.5812 6.62505 10.6562C6.3938 10.775 6.2938 10.7312 5.8188 10.3C4.8563 9.425 3.52505 8.825 2.30005 8.7125C1.75005 8.66249 1.5938 8.73125 1.1563 9.2C0.912546 9.4625 0.500046 10.0187 0.500046 10.0875C0.500046 10.1062 0.431296 10.2687 0.343796 10.45C-0.231204 11.7 -0.0562043 13.3625 0.775046 14.5C1.1813 15.0625 1.18755 15.0625 1.88755 15.0625C3.0188 15.0625 3.9688 14.6875 4.9313 13.8625C5.36255 13.4875 5.75005 13.5562 5.75005 14.0062C5.75005 14.2937 4.6188 15.175 3.93755 15.425C3.3188 15.65 2.93755 15.75 2.31255 15.8437C2.0938 15.875 2.08755 15.8875 2.0063 16.2562C1.90005 16.725 1.90005 17.5937 2.00005 17.9125C2.4063 19.1625 2.95005 19.8375 3.9813 20.375C4.27505 20.525 4.3938 20.5125 4.62505 20.2937C4.98755 19.9562 5.93755 19.4312 6.50005 19.2562C7.16255 19.05 7.3938 19.0062 7.9188 18.9687C8.4438 18.9312 8.50004 18.9375 8.6188 19.0562C8.76255 19.2 8.78129 19.325 8.68754 19.4937C8.6063 19.6562 8.4938 19.6875 7.7813 19.7812C7.43755 19.825 7.05005 19.8875 6.92505 19.925C6.50005 20.0375 5.53755 20.5562 5.12505 20.8937L4.7188 21.2312L4.7313 21.6125C4.76255 22.8312 5.82505 24.1437 7.1438 24.5937C7.8063 24.8187 8.86255 24.8375 9.38755 24.6312C9.9563 24.4125 10.1313 24.325 10.4063 24.1375C11.0875 23.6687 11.6563 22.8687 11.925 21.9937C12.0188 21.6875 12.0313 20.8687 12.0438 12.5C12.0625 4.12499 12.0563 3.3 11.9625 2.81249C11.9 2.51875 11.8125 2.18125 11.7625 2.06874C11.4875 1.4 10.8188 0.656244 10.225 0.356245C9.5438 0.00624466 9.4938 -5.72205e-06 8.28755 -5.72205e-06H7.1563L6.68755 0.231245Z" fill="white"/>
<path d="M18.6125 1C17.6813 1.28125 17.0938 2.375 17.4 3.26875C17.4563 3.43125 17.5 3.5875 17.5 3.60625C17.5 3.625 17.1438 4.00625 16.7063 4.45L15.9125 5.25H14.4938C13.7125 5.25 13.0313 5.26875 12.975 5.2875C12.9 5.31875 12.875 5.4125 12.875 5.6625V6H14.55H16.2188L17.0938 5.11875C18.05 4.15625 17.9875 4.1875 18.5625 4.40625C18.8938 4.53125 19.5438 4.5 19.8438 4.35C20.1938 4.175 20.5375 3.825 20.7125 3.46875C20.8625 3.15 20.8875 3.05 20.8625 2.6625C20.825 1.9125 20.4125 1.33125 19.7313 1.05C19.4563 0.9375 18.9 0.9125 18.6125 1ZM19.6375 1.88125C20.125 2.23125 20.2563 2.8 19.95 3.225C19.725 3.53125 19.65 3.59375 19.3563 3.6875C18.85 3.85 18.2875 3.5125 18.1188 2.94375C18.0188 2.6 18.1813 2.175 18.5188 1.93125C18.8375 1.7 19.3438 1.675 19.6375 1.88125Z" fill="white"/>
<path d="M22.7125 4.71875C22.1687 4.8875 21.6375 5.3875 21.5312 5.83125L21.4875 5.9875L20.4875 6.0125L19.4875 6.03125L19.1063 6.4375C18.8938 6.6625 18.4938 7.1 18.2188 7.40625C17.9437 7.7125 17.5938 8.1 17.4437 8.2625L17.1688 8.5625H15.025H12.875V8.9375V9.3125H15.2125H17.5563L18.2938 8.48125C18.7 8.03125 19.0438 7.64375 19.0625 7.625C19.0813 7.60625 19.25 7.41875 19.4313 7.2L19.7688 6.8125H20.5563C20.9875 6.8125 21.375 6.8375 21.4187 6.8625C21.4563 6.8875 21.5063 6.98125 21.5312 7.06875C21.55 7.15625 21.675 7.3625 21.8 7.53125C22.3063 8.19375 23.2 8.4125 23.9375 8.05C25.1062 7.48125 25.3562 6 24.425 5.15C24.1625 4.9125 24.0188 4.83125 23.6375 4.7125C23.2875 4.60625 23.0563 4.6125 22.7125 4.71875ZM23.6625 5.55625C23.9125 5.70625 24.1625 6.0375 24.2063 6.275C24.2688 6.65625 24 7.15 23.6188 7.34375C23.175 7.575 22.5563 7.35 22.3125 6.875C22.0563 6.36875 22.2438 5.80625 22.7812 5.5125C22.9812 5.4 23.4438 5.425 23.6625 5.55625Z" fill="white"/>
<path d="M22.7813 10.6C22.275 10.7312 21.6188 11.3 21.5313 11.6812C21.5063 11.7937 21.4438 11.875 21.3563 11.9C21.2813 11.9187 19.3438 11.9375 17.05 11.9375H12.875V12.3125V12.6875H17.0813C20.3563 12.6875 21.3125 12.7062 21.3875 12.7625C21.4375 12.8062 21.55 12.9812 21.6313 13.15C22.3188 14.5625 24.375 14.3875 24.9 12.8687C25.1688 12.1062 24.8 11.1875 24.075 10.7937C23.75 10.6187 23.0938 10.5187 22.7813 10.6ZM23.5125 11.3875C23.8 11.475 24.0938 11.7812 24.1813 12.0937C24.275 12.45 24.1063 12.9062 23.7938 13.1312C23.3813 13.4312 22.7563 13.3687 22.45 13C22.3125 12.8375 22.1875 12.4937 22.1875 12.2875C22.1875 12 22.4813 11.5875 22.7813 11.4437C23.075 11.2937 23.1875 11.2875 23.5125 11.3875Z" fill="white"/>
<path d="M12.9563 14.9187C12.9 14.9375 12.875 15.0812 12.875 15.3187V15.6875H15.025H17.1688L17.4438 15.9875C17.5938 16.15 18 16.6062 18.3438 17C18.6875 17.3937 19.075 17.825 19.2063 17.95L19.4438 18.1875H20.3625C20.8688 18.1875 21.3125 18.2125 21.35 18.2375C21.3875 18.2625 21.475 18.4062 21.55 18.5687C21.9063 19.3062 22.725 19.7187 23.4938 19.5562C23.9 19.4625 24.0625 19.375 24.3938 19.0687C24.8 18.6875 24.9063 18.425 24.9063 17.7812C24.9063 17.325 24.8813 17.1687 24.7688 16.9625C24.0813 15.6812 22.25 15.7125 21.6063 17.025L21.4313 17.375H20.5625C19.8813 17.375 19.6813 17.3562 19.6438 17.2875C19.6188 17.2375 19.4 16.9812 19.1625 16.7187C18.5813 16.0812 18.4313 15.9125 18.05 15.4562C17.5313 14.85 17.65 14.875 15.175 14.8812C14 14.8812 12.9938 14.9 12.9563 14.9187ZM23.7188 16.9437C24.2438 17.2562 24.3563 17.9625 23.9563 18.4375C23.6313 18.825 23.1438 18.9125 22.7063 18.6562C22 18.2375 22.0375 17.3 22.7813 16.8875C22.9938 16.7687 23.4688 16.8 23.7188 16.9437Z" fill="white"/>
<path d="M12.95 18.1812C12.8937 18.2125 12.875 18.3375 12.8875 18.5687L12.9062 18.9062L14.3875 18.9375L15.875 18.9687L16.6312 19.7187C17.0437 20.1312 17.4062 20.5125 17.4437 20.575C17.4812 20.6437 17.4687 20.7687 17.4062 20.9375C17.1312 21.725 17.5687 22.7187 18.3562 23.0937C18.6562 23.2437 19.2875 23.2875 19.6062 23.1875C20.5375 22.8812 21.1 21.8375 20.8062 20.9562C20.6625 20.5437 20.4312 20.2625 19.975 19.9625C19.65 19.7437 18.9187 19.6875 18.5 19.8437C18.3437 19.9 18.1687 19.9625 18.1062 19.9812C18.0187 20.0062 17.7812 19.8 17.125 19.1312C16.5187 18.5125 16.2 18.225 16.05 18.1875C15.8 18.1125 13.0625 18.1062 12.95 18.1812ZM19.625 20.6687C19.8625 20.8062 20.125 21.2312 20.125 21.4812C20.125 21.6 20.0687 21.8 20 21.9375C19.6062 22.7125 18.525 22.6875 18.1812 21.8937C18.025 21.525 18.0312 21.4187 18.225 21.0562C18.375 20.7812 18.4937 20.6937 18.875 20.5437C19.0187 20.4875 19.4375 20.5562 19.625 20.6687Z" fill="white"/>
</g>
<path d="M40.5795 15.112H45.6035V17H37.9875V15.272L42.9795 7.72H37.9875V5.832H45.6035V7.56L40.5795 15.112ZM51.4463 17.144C50.5929 17.144 49.8249 16.9573 49.1423 16.584C48.4596 16.2 47.9209 15.6613 47.5263 14.968C47.1423 14.2747 46.9503 13.4747 46.9503 12.568C46.9503 11.6613 47.1476 10.8613 47.5423 10.168C47.9476 9.47467 48.4969 8.94133 49.1903 8.568C49.8836 8.184 50.6569 7.992 51.5103 7.992C52.3636 7.992 53.1369 8.184 53.8303 8.568C54.5236 8.94133 55.0676 9.47467 55.4623 10.168C55.8676 10.8613 56.0703 11.6613 56.0703 12.568C56.0703 13.4747 55.8623 14.2747 55.4462 14.968C55.0409 15.6613 54.4863 16.2 53.7823 16.584C53.0889 16.9573 52.3103 17.144 51.4463 17.144ZM51.4463 15.192C51.8516 15.192 52.2303 15.096 52.5823 14.904C52.9449 14.7013 53.2329 14.4027 53.4463 14.008C53.6596 13.6133 53.7663 13.1333 53.7663 12.568C53.7663 11.7253 53.5423 11.08 53.0943 10.632C52.6569 10.1733 52.1183 9.944 51.4783 9.944C50.8383 9.944 50.2996 10.1733 49.8623 10.632C49.4356 11.08 49.2223 11.7253 49.2223 12.568C49.2223 13.4107 49.4303 14.0613 49.8463 14.52C50.2729 14.968 50.8063 15.192 51.4463 15.192ZM62.6254 8.008C63.6814 8.008 64.5347 8.344 65.1854 9.016C65.836 9.67733 66.1614 10.6053 66.1614 11.8V17H63.9214V12.104C63.9214 11.4 63.7454 10.8613 63.3934 10.488C63.0414 10.104 62.5614 9.912 61.9534 9.912C61.3347 9.912 60.844 10.104 60.4814 10.488C60.1294 10.8613 59.9534 11.4 59.9534 12.104V17H57.7134V8.136H59.9534V9.24C60.252 8.856 60.6307 8.55733 61.0894 8.344C61.5587 8.12 62.0707 8.008 62.6254 8.008ZM67.7155 12.536C67.7155 11.64 67.8915 10.8453 68.2435 10.152C68.6062 9.45867 69.0915 8.92533 69.6995 8.552C70.3182 8.17867 71.0062 7.992 71.7635 7.992C72.4248 7.992 73.0008 8.12533 73.4915 8.392C73.9928 8.65867 74.3928 8.99467 74.6915 9.4V8.136H76.9475V17H74.6915V15.704C74.4035 16.12 74.0035 16.4667 73.4915 16.744C72.9902 17.0107 72.4088 17.144 71.7475 17.144C71.0008 17.144 70.3182 16.952 69.6995 16.568C69.0915 16.184 68.6062 15.6453 68.2435 14.952C67.8915 14.248 67.7155 13.4427 67.7155 12.536ZM74.6915 12.568C74.6915 12.024 74.5848 11.56 74.3715 11.176C74.1582 10.7813 73.8702 10.4827 73.5075 10.28C73.1448 10.0667 72.7555 9.96 72.3395 9.96C71.9235 9.96 71.5395 10.0613 71.1875 10.264C70.8355 10.4667 70.5475 10.7653 70.3235 11.16C70.1102 11.544 70.0035 12.0027 70.0035 12.536C70.0035 13.0693 70.1102 13.5387 70.3235 13.944C70.5475 14.3387 70.8355 14.6427 71.1875 14.856C71.5502 15.0693 71.9342 15.176 72.3395 15.176C72.7555 15.176 73.1448 15.0747 73.5075 14.872C73.8702 14.6587 74.1582 14.36 74.3715 13.976C74.5848 13.5813 74.6915 13.112 74.6915 12.568ZM86.7353 5.832V7.64H83.7593V17H81.5193V7.64H78.5433V5.832H86.7353ZM96.6096 12.376C96.6096 12.696 96.5883 12.984 96.5456 13.24H90.0656C90.119 13.88 90.343 14.3813 90.7376 14.744C91.1323 15.1067 91.6176 15.288 92.1936 15.288C93.0256 15.288 93.6176 14.9307 93.9696 14.216H96.3856C96.1296 15.0693 95.639 15.7733 94.9136 16.328C94.1883 16.872 93.2976 17.144 92.2416 17.144C91.3883 17.144 90.6203 16.9573 89.9376 16.584C89.2656 16.2 88.7376 15.6613 88.3536 14.968C87.9803 14.2747 87.7936 13.4747 87.7936 12.568C87.7936 11.6507 87.9803 10.8453 88.3536 10.152C88.727 9.45867 89.2496 8.92533 89.9216 8.552C90.5936 8.17867 91.367 7.992 92.2416 7.992C93.0843 7.992 93.8363 8.17333 94.4976 8.536C95.1696 8.89867 95.687 9.416 96.0496 10.088C96.423 10.7493 96.6096 11.512 96.6096 12.376ZM94.2896 11.736C94.279 11.16 94.071 10.7013 93.6656 10.36C93.2603 10.008 92.7643 9.832 92.1776 9.832C91.623 9.832 91.1536 10.0027 90.7696 10.344C90.3963 10.6747 90.167 11.1387 90.0816 11.736H94.2896ZM97.6686 12.568C97.6686 11.6507 97.8553 10.8507 98.2286 10.168C98.602 9.47467 99.1193 8.94133 99.7806 8.568C100.442 8.184 101.199 7.992 102.053 7.992C103.151 7.992 104.058 8.26933 104.773 8.824C105.498 9.368 105.983 10.136 106.229 11.128H103.813C103.685 10.744 103.466 10.4453 103.157 10.232C102.858 10.008 102.485 9.896 102.037 9.896C101.397 9.896 100.89 10.1307 100.517 10.6C100.143 11.0587 99.9566 11.7147 99.9566 12.568C99.9566 13.4107 100.143 14.0667 100.517 14.536C100.89 14.9947 101.397 15.224 102.037 15.224C102.943 15.224 103.535 14.8187 103.813 14.008H106.229C105.983 14.968 105.498 15.7307 104.773 16.296C104.047 16.8613 103.141 17.144 102.053 17.144C101.199 17.144 100.442 16.9573 99.7806 16.584C99.1193 16.2 98.602 15.6667 98.2286 14.984C97.8553 14.2907 97.6686 13.4853 97.6686 12.568ZM112.862 8.008C113.534 8.008 114.131 8.15733 114.654 8.456C115.176 8.744 115.582 9.176 115.87 9.752C116.168 10.3173 116.318 11 116.318 11.8V17H114.078V12.104C114.078 11.4 113.902 10.8613 113.55 10.488C113.198 10.104 112.718 9.912 112.11 9.912C111.491 9.912 111 10.104 110.638 10.488C110.286 10.8613 110.11 11.4 110.11 12.104V17H107.87V5.16H110.11V9.24C110.398 8.856 110.782 8.55733 111.262 8.344C111.742 8.12 112.275 8.008 112.862 8.008ZM130.404 9.288C130.404 9.88533 130.26 10.4453 129.972 10.968C129.695 11.4907 129.252 11.912 128.644 12.232C128.047 12.552 127.29 12.712 126.372 12.712H124.5V17H122.26V5.832H126.372C127.236 5.832 127.972 5.98133 128.58 6.28C129.188 6.57867 129.642 6.98933 129.94 7.512C130.25 8.03467 130.404 8.62667 130.404 9.288ZM126.276 10.904C126.895 10.904 127.354 10.7653 127.652 10.488C127.951 10.2 128.1 9.8 128.1 9.288C128.1 8.2 127.492 7.656 126.276 7.656H124.5V10.904H126.276ZM140.235 12.376C140.235 12.696 140.213 12.984 140.171 13.24H133.691C133.744 13.88 133.968 14.3813 134.363 14.744C134.757 15.1067 135.243 15.288 135.819 15.288C136.651 15.288 137.243 14.9307 137.595 14.216H140.011C139.755 15.0693 139.264 15.7733 138.539 16.328C137.813 16.872 136.923 17.144 135.867 17.144C135.013 17.144 134.245 16.9573 133.563 16.584C132.891 16.2 132.363 15.6613 131.979 14.968C131.605 14.2747 131.419 13.4747 131.419 12.568C131.419 11.6507 131.605 10.8453 131.979 10.152C132.352 9.45867 132.875 8.92533 133.547 8.552C134.219 8.17867 134.992 7.992 135.867 7.992C136.709 7.992 137.461 8.17333 138.123 8.536C138.795 8.89867 139.312 9.416 139.675 10.088C140.048 10.7493 140.235 11.512 140.235 12.376ZM137.915 11.736C137.904 11.16 137.696 10.7013 137.291 10.36C136.885 10.008 136.389 9.832 135.803 9.832C135.248 9.832 134.779 10.0027 134.395 10.344C134.021 10.6747 133.792 11.1387 133.707 11.736H137.915ZM144.11 9.512C144.398 9.04267 144.771 8.67467 145.23 8.408C145.699 8.14133 146.232 8.008 146.83 8.008V10.36H146.238C145.534 10.36 145 10.5253 144.638 10.856C144.286 11.1867 144.11 11.7627 144.11 12.584V17H141.87V8.136H144.11V9.512ZM156.706 8.136V17H154.45V15.88C154.162 16.264 153.784 16.568 153.314 16.792C152.856 17.0053 152.354 17.112 151.81 17.112C151.117 17.112 150.504 16.968 149.97 16.68C149.437 16.3813 149.016 15.9493 148.706 15.384C148.408 14.808 148.258 14.1253 148.258 13.336V8.136H150.498V13.016C150.498 13.72 150.674 14.264 151.026 14.648C151.378 15.0213 151.858 15.208 152.466 15.208C153.085 15.208 153.57 15.0213 153.922 14.648C154.274 14.264 154.45 13.72 154.45 13.016V8.136H156.706ZM154.274 5.832L150.594 7.512V5.912L154.274 4.008V5.832Z" fill="white"/>
<defs>
<clipPath id="clip0_328_30">
<rect width="25" height="25" fill="white"/>
</clipPath>
</defs>
</svg>
