<svg width="75" height="75" viewBox="0 0 75 75" fill="none" xmlns="http://www.w3.org/2000/svg">
<g clip-path="url(#clip0_348_1261)">
<path d="M20.0625 0.693741C17.6438 1.89374 14.7938 5.17499 14.8125 6.74998C14.8125 7.51874 16.125 9.52499 17.25 10.5C18.6188 11.6812 19.9875 12.3 22.0125 12.6562C23.1188 12.8437 23.7563 13.05 23.925 13.275C24.3938 13.875 24.1875 14.5125 23.4375 14.9062C22.6688 15.3 20.0625 14.8312 18.3188 13.9875C16.275 12.9937 14.2313 11.1 13.3875 9.39374C12.9938 8.60624 12.825 8.54999 12.0375 8.92499C9.11251 10.2937 6.67501 13.3312 5.98126 16.5C5.66251 18 5.66251 20.4562 5.98126 21.4687C6.71251 23.7375 6.75001 23.8125 7.42501 23.8125C8.90626 23.8125 13.2375 25.2 14.85 26.1937C15.2438 26.4375 15.6 26.625 15.6563 26.625C15.8813 26.625 18.6188 28.7437 19.5 29.6062C20.2313 30.3 20.4375 30.6187 20.4375 31.0875C20.4375 31.5562 20.325 31.7437 19.875 31.9687C19.1813 32.325 18.8813 32.1937 17.4563 30.9C14.5688 28.275 10.575 26.475 6.90001 26.1375C5.25001 25.9875 4.78126 26.1937 3.46876 27.6C2.73751 28.3875 1.50001 30.0562 1.50001 30.2625C1.50001 30.3187 1.29376 30.8062 1.03126 31.35C-0.693735 35.1 -0.168735 40.0875 2.32501 43.5C3.54376 45.1875 3.56251 45.1875 5.66251 45.1875C9.05626 45.1875 11.9063 44.0625 14.7938 41.5875C16.0875 40.4625 17.25 40.6687 17.25 42.0187C17.25 42.8812 13.8563 45.525 11.8125 46.275C9.95626 46.95 8.81251 47.25 6.93751 47.5312C6.28126 47.625 6.26251 47.6625 6.01876 48.7687C5.70001 50.175 5.70001 52.7812 6.00001 53.7375C7.21876 57.4875 8.85001 59.5125 11.9438 61.125C12.825 61.575 13.1813 61.5375 13.875 60.8812C14.9625 59.8687 17.8125 58.2937 19.5 57.7687C21.4875 57.15 22.1813 57.0187 23.7563 56.9062C25.3313 56.7937 25.5 56.8125 25.8563 57.1687C26.2875 57.6 26.3438 57.975 26.0625 58.4812C25.8188 58.9687 25.4813 59.0625 23.3438 59.3437C22.3125 59.475 21.15 59.6625 20.775 59.775C19.5 60.1125 16.6125 61.6687 15.375 62.6812L14.1563 63.6937L14.1938 64.8375C14.2875 68.4937 17.475 72.4312 21.4313 73.7812C23.4188 74.4562 26.5875 74.5125 28.1625 73.8937C29.8688 73.2375 30.3938 72.975 31.2188 72.4125C33.2625 71.0062 34.9688 68.6062 35.775 65.9812C36.0563 65.0625 36.0938 62.6062 36.1313 37.5C36.1875 12.375 36.1688 9.89999 35.8875 8.43748C35.7 7.55624 35.4375 6.54374 35.2875 6.20624C34.4625 4.19999 32.4563 1.96873 30.675 1.06874C28.6313 0.0187378 28.4813 -1.52588e-05 24.8625 -1.52588e-05H21.4688L20.0625 0.693741Z" fill="white"/>
<path d="M55.8375 3C53.0438 3.84375 51.2813 7.125 52.2 9.80625C52.3688 10.2937 52.5 10.7625 52.5 10.8187C52.5 10.875 51.4313 12.0187 50.1188 13.35L47.7375 15.75H43.4813C41.1375 15.75 39.0938 15.8062 38.925 15.8625C38.7 15.9562 38.625 16.2375 38.625 16.9875V18H43.65H48.6562L51.2813 15.3562C54.15 12.4688 53.9625 12.5625 55.6875 13.2188C56.6813 13.5938 58.6313 13.5 59.5312 13.05C60.5813 12.525 61.6125 11.475 62.1375 10.4062C62.5875 9.45 62.6625 9.15 62.5875 7.9875C62.475 5.7375 61.2375 3.99375 59.1938 3.15C58.3688 2.8125 56.7 2.7375 55.8375 3ZM58.9125 5.64375C60.375 6.69375 60.7688 8.4 59.85 9.675C59.175 10.5937 58.95 10.7812 58.0688 11.0625C56.55 11.55 54.8625 10.5375 54.3563 8.83125C54.0563 7.8 54.5438 6.525 55.5563 5.79375C56.5125 5.1 58.0312 5.025 58.9125 5.64375Z" fill="white"/>
<path d="M68.1375 14.1562C66.5063 14.6625 64.9125 16.1625 64.5938 17.4937L64.4625 17.9625L61.4625 18.0375L58.4625 18.0938L57.3188 19.3125C56.6813 19.9875 55.4813 21.3 54.6562 22.2188C53.8313 23.1375 52.7813 24.3 52.3313 24.7875L51.5063 25.6875H45.075H38.625V26.8125V27.9375H45.6375H52.6688L54.8813 25.4437C56.1 24.0937 57.1313 22.9312 57.1875 22.875C57.2438 22.8187 57.75 22.2562 58.2938 21.6L59.3063 20.4375H61.6688C62.9625 20.4375 64.125 20.5125 64.2563 20.5875C64.3688 20.6625 64.5188 20.9437 64.5938 21.2062C64.65 21.4687 65.025 22.0875 65.4 22.5938C66.9188 24.5812 69.6 25.2375 71.8125 24.15C75.3188 22.4437 76.0688 18 73.275 15.45C72.4875 14.7375 72.0563 14.4937 70.9125 14.1375C69.8625 13.8187 69.1688 13.8375 68.1375 14.1562ZM70.9875 16.6687C71.7375 17.1187 72.4875 18.1125 72.6188 18.825C72.8063 19.9687 72 21.45 70.8563 22.0312C69.525 22.725 67.6688 22.05 66.9375 20.625C66.1688 19.1062 66.7313 17.4187 68.3438 16.5375C68.9438 16.2 70.3313 16.275 70.9875 16.6687Z" fill="white"/>
<path d="M68.3438 31.8C66.825 32.1937 64.8563 33.9 64.5938 35.0437C64.5188 35.3812 64.3313 35.625 64.0688 35.7C63.8438 35.7562 58.0313 35.8125 51.15 35.8125H38.625V36.9375V38.0625H51.2438C61.0688 38.0625 63.9375 38.1187 64.1625 38.2875C64.3125 38.4187 64.65 38.9437 64.8938 39.45C66.9563 43.6875 73.125 43.1625 74.7 38.6062C75.5063 36.3187 74.4 33.5625 72.225 32.3812C71.25 31.8562 69.2813 31.5562 68.3438 31.8ZM70.5375 34.1625C71.4 34.425 72.2813 35.3437 72.5438 36.2812C72.825 37.35 72.3188 38.7187 71.3813 39.3937C70.1438 40.2937 68.2688 40.1062 67.35 39C66.9375 38.5125 66.5625 37.4812 66.5625 36.8625C66.5625 36 67.4438 34.7625 68.3438 34.3312C69.225 33.8812 69.5625 33.8625 70.5375 34.1625Z" fill="white"/>
<path d="M38.8688 44.7562C38.7 44.8125 38.625 45.2437 38.625 45.9562V47.0625H45.075H51.5063L52.3313 47.9625C52.7813 48.45 54 49.8187 55.0313 51C56.0625 52.1812 57.225 53.475 57.6188 53.85L58.3313 54.5625H61.0875C62.6063 54.5625 63.9375 54.6375 64.05 54.7125C64.1625 54.7875 64.425 55.2187 64.65 55.7062C65.7188 57.9187 68.175 59.1562 70.4813 58.6687C71.7 58.3875 72.1875 58.125 73.1813 57.2062C74.4 56.0625 74.7188 55.275 74.7188 53.3437C74.7188 51.975 74.6438 51.5062 74.3063 50.8875C72.2438 47.0437 66.75 47.1375 64.8188 51.075L64.2938 52.125H61.6875C59.6438 52.125 59.0438 52.0687 58.9313 51.8625C58.8563 51.7125 58.2 50.9437 57.4875 50.1562C55.7438 48.2437 55.2938 47.7375 54.15 46.3687C52.5938 44.55 52.95 44.625 45.525 44.6437C42 44.6437 38.9813 44.7 38.8688 44.7562ZM71.1563 50.8312C72.7313 51.7687 73.0688 53.8875 71.8688 55.3125C70.8938 56.475 69.4313 56.7375 68.1188 55.9687C66 54.7125 66.1125 51.9 68.3438 50.6625C68.9813 50.3062 70.4063 50.4 71.1563 50.8312Z" fill="white"/>
<path d="M38.85 54.5438C38.6812 54.6375 38.625 55.0125 38.6625 55.7063L38.7187 56.7188L43.1625 56.8125L47.625 56.9063L49.8937 59.1563C51.1312 60.3938 52.2187 61.5375 52.3312 61.725C52.4437 61.9313 52.4062 62.3063 52.2187 62.8125C51.3937 65.175 52.7062 68.1563 55.0687 69.2813C55.9687 69.7313 57.8625 69.8625 58.8187 69.5625C61.6125 68.6438 63.3 65.5125 62.4187 62.8688C61.9875 61.6313 61.2937 60.7875 59.925 59.8875C58.95 59.2313 56.7562 59.0625 55.5 59.5313C55.0312 59.7 54.5062 59.8875 54.3187 59.9438C54.0562 60.0188 53.3437 59.4 51.375 57.3938C49.5562 55.5375 48.6 54.675 48.15 54.5625C47.4 54.3375 39.1875 54.3188 38.85 54.5438ZM58.875 62.0063C59.5875 62.4188 60.375 63.6938 60.375 64.4438C60.375 64.8 60.2062 65.4 60 65.8125C58.8187 68.1375 55.575 68.0625 54.5437 65.6813C54.075 64.575 54.0937 64.2563 54.675 63.1688C55.125 62.3438 55.4812 62.0813 56.625 61.6313C57.0562 61.4625 58.3125 61.6688 58.875 62.0063Z" fill="white"/>
</g>
<defs>
<clipPath id="clip0_348_1261">
<rect width="75" height="75" fill="white"/>
</clipPath>
</defs>
</svg>
