<svg width="25" height="21" viewBox="0 0 25 21" fill="none" xmlns="http://www.w3.org/2000/svg">
<path d="M25 2.40363C24.064 2.81868 23.0711 3.091 22.0543 3.21151C23.1254 2.57069 23.9269 1.5623 24.3094 0.374284C23.3027 0.972234 22.2009 1.39319 21.0519 1.61886C20.348 0.869164 19.4351 0.348278 18.4316 0.12377C17.428 -0.100738 16.3802 -0.0185092 15.424 0.359791C14.4677 0.738091 13.6472 1.395 13.0689 2.24532C12.4906 3.09564 12.1811 4.10011 12.1807 5.12846C12.1802 5.52189 12.2246 5.91409 12.3128 6.2975C10.2736 6.19531 8.27877 5.66545 6.45766 4.74233C4.63655 3.8192 3.02992 2.52344 1.74205 0.939147C1.08626 2.06821 0.885335 3.40472 1.18015 4.67669C1.47497 5.94867 2.24338 7.06051 3.329 7.78595C2.51449 7.76072 1.71784 7.54087 1.00567 7.14478V7.2096C1.00583 8.39373 1.41556 9.54136 2.16536 10.4579C2.91516 11.3744 3.95888 12.0033 5.11951 12.238C4.67917 12.3581 4.22469 12.4186 3.76826 12.4178C3.44435 12.4178 3.12114 12.3876 2.80284 12.3275C3.1306 13.3463 3.76848 14.2372 4.62733 14.8757C5.48619 15.5142 6.52308 15.8685 7.59309 15.8889C5.44244 17.5729 2.7122 18.3363 0 18.0119C2.34477 19.5193 5.07403 20.3196 7.86155 20.3171C9.78145 20.3303 11.6848 19.9619 13.4612 19.2333C15.2375 18.5046 16.8513 17.4303 18.2089 16.0727C19.5665 14.7151 20.6408 13.1013 21.3695 11.325C22.0981 9.54865 22.4665 7.64526 22.4533 5.72536C22.4533 5.50286 22.4481 5.28174 22.4377 5.062C23.4428 4.33499 24.3105 3.43482 25 2.40363Z" fill="white"/>
</svg>
