<svg width="25" height="18" viewBox="0 0 25 18" fill="none" xmlns="http://www.w3.org/2000/svg">
<path d="M24.9942 6.19119C25.0504 4.56568 24.6949 2.95234 23.9608 1.50097C23.4627 0.905431 22.7715 0.503538 22.0075 0.365319C18.8476 0.0785964 15.6746 -0.0389215 12.5021 0.0132681C9.34122 -0.0412903 6.17965 0.0724355 3.03083 0.353962C2.40829 0.467205 1.83218 0.759209 1.37279 1.19434C0.350706 2.13693 0.237141 3.74955 0.123576 5.11232C-0.0411922 7.56255 -0.0411922 10.0211 0.123576 12.4713C0.156431 13.2383 0.270636 13.9997 0.46427 14.7426C0.601201 15.3162 0.87824 15.8468 1.27058 16.2871C1.73309 16.7453 2.32263 17.0539 2.96269 17.1729C5.41105 17.4751 7.87802 17.6004 10.3444 17.5477C14.3192 17.6044 17.8056 17.5477 21.928 17.2297C22.5838 17.118 23.1899 16.809 23.6655 16.3439C23.9835 16.0258 24.221 15.6365 24.3583 15.2082C24.7644 13.962 24.9639 12.6577 24.9488 11.347C24.9942 10.7111 24.9942 6.87258 24.9942 6.19119ZM9.93556 12.0284V4.99876L16.6586 8.53062C14.7734 9.57541 12.2864 10.7565 9.93556 12.0284Z" fill="white"/>
</svg>
